# xmcd
# 
# Track frame offsets:
#     150
#     14841
#     30801
#     46780
#     62312
#     79654
#     96889
#     116787
#     134742
#     156327
#     174206
#     199952
# 
# Disc length: 2931
# 
# Revision: 0
# Processed by: cddbd v1.5.2PL0 Copyright (c) Steve Scherf et al.
# Submitted via: fre:ac v1.0.31
# 
DISCID=980b710c
DTITLE=Jon McAuliffe - In This Present Form
DYEAR=2011
DGENRE=Folk
TTITLE0=Southern Special
TTITLE1=Gotta Get Back To Memphis
TTITLE2=When The Lights Go Out
TTITLE3=Once Upon A Time
TTITLE4=Tear Down Every Wall
TTITLE5=Let Your Light Shine
TTITLE6=Maria
TTITLE7=Head In The Clouds
TTITLE8=Jack! Jack!
TTITLE9=Patti's Song
TTITLE10=I Am The Stone
TTITLE11=On The Other Side
EXTD=
EXTT0=
EXTT1=
EXTT2=
EXTT3=
EXTT4=
EXTT5=
EXTT6=
EXTT7=
EXTT8=
EXTT9=
EXTT10=
EXTT11=
PLAYORDER=
